<svg width="47" height="47" viewBox="0 0 47 47" fill="none" xmlns="http://www.w3.org/2000/svg">
<path d="M35.25 5.875V9.79167H31.3333V5.875H15.6667V9.79167H11.75V5.875H7.83333V41.125H11.75V37.2083H15.6667V41.125H31.3333V37.2083H35.25V41.125H39.1667V5.875H35.25ZM15.6667 33.2917H11.75V29.375H15.6667V33.2917ZM15.6667 25.4583H11.75V21.5417H15.6667V25.4583ZM15.6667 17.625H11.75V13.7083H15.6667V17.625ZM35.25 33.2917H31.3333V29.375H35.25V33.2917ZM35.25 25.4583H31.3333V21.5417H35.25V25.4583ZM35.25 17.625H31.3333V13.7083H35.25V17.625Z" fill="#0967A4"/>
</svg>
