<svg width="285" height="58" viewBox="0 0 285 58" fill="none" xmlns="http://www.w3.org/2000/svg">
<path d="M35.25 10.875V14.7917H31.3333V10.875H15.6667V14.7917H11.75V10.875H7.83333V46.125H11.75V42.2083H15.6667V46.125H31.3333V42.2083H35.25V46.125H39.1667V10.875H35.25ZM15.6667 38.2917H11.75V34.375H15.6667V38.2917ZM15.6667 30.4583H11.75V26.5417H15.6667V30.4583ZM15.6667 22.625H11.75V18.7083H15.6667V22.625ZM35.25 38.2917H31.3333V34.375H35.25V38.2917ZM35.25 30.4583H31.3333V26.5417H35.25V30.4583ZM35.25 22.625H31.3333V18.7083H35.25V22.625Z" fill="#0967A4"/>
<path d="M49.642 11.0909H60.0909L68.9545 32.7045H69.3636L78.2273 11.0909H88.6761V46H80.4602V24.5568H80.1705L71.7841 45.7784H66.5341L58.1477 24.4375H57.858V46H49.642V11.0909ZM126.888 28.5455C126.888 32.3864 126.149 35.642 124.672 38.3125C123.195 40.983 121.195 43.0114 118.672 44.3977C116.161 45.7841 113.342 46.4773 110.217 46.4773C107.081 46.4773 104.257 45.7784 101.746 44.3807C99.2344 42.983 97.2401 40.9545 95.7628 38.2955C94.2969 35.625 93.5639 32.375 93.5639 28.5455C93.5639 24.7045 94.2969 21.4489 95.7628 18.7784C97.2401 16.108 99.2344 14.0795 101.746 12.6932C104.257 11.3068 107.081 10.6136 110.217 10.6136C113.342 10.6136 116.161 11.3068 118.672 12.6932C121.195 14.0795 123.195 16.108 124.672 18.7784C126.149 21.4489 126.888 24.7045 126.888 28.5455ZM118.263 28.5455C118.263 26.2727 117.939 24.3523 117.291 22.7841C116.655 21.2159 115.734 20.0284 114.53 19.2216C113.337 18.4148 111.899 18.0114 110.217 18.0114C108.547 18.0114 107.109 18.4148 105.905 19.2216C104.7 20.0284 103.774 21.2159 103.126 22.7841C102.49 24.3523 102.172 26.2727 102.172 28.5455C102.172 30.8182 102.49 32.7386 103.126 34.3068C103.774 35.875 104.7 37.0625 105.905 37.8693C107.109 38.6761 108.547 39.0795 110.217 39.0795C111.899 39.0795 113.337 38.6761 114.53 37.8693C115.734 37.0625 116.655 35.875 117.291 34.3068C117.939 32.7386 118.263 30.8182 118.263 28.5455ZM137.678 11.0909L145.484 36.6591H145.774L153.581 11.0909H163.024L151.246 46H140.013L128.234 11.0909H137.678ZM175.22 11.0909V46H166.783V11.0909H175.22ZM180.517 46V11.0909H204.858V17.9432H188.955V25.1023H203.614V31.9716H188.955V39.1477H204.858V46H180.517ZM233.358 46H220.455V11.0909H233.341C236.898 11.0909 239.96 11.7898 242.528 13.1875C245.108 14.5739 247.097 16.5739 248.494 19.1875C249.892 21.7898 250.591 24.9034 250.591 28.5284C250.591 32.1648 249.892 35.2898 248.494 37.9034C247.108 40.517 245.125 42.5227 242.545 43.9205C239.966 45.3068 236.903 46 233.358 46ZM228.892 38.8068H233.034C234.989 38.8068 236.642 38.4773 237.994 37.8182C239.358 37.1477 240.386 36.0625 241.08 34.5625C241.784 33.0511 242.136 31.0398 242.136 28.5284C242.136 26.017 241.784 24.017 241.08 22.5284C240.375 21.0284 239.335 19.9489 237.96 19.2898C236.597 18.6193 234.915 18.2841 232.915 18.2841H228.892V38.8068ZM255.517 46V11.0909H270.074C272.688 11.0909 274.875 11.4602 276.636 12.1989C278.409 12.9375 279.739 13.9716 280.625 15.3011C281.523 16.6307 281.972 18.1705 281.972 19.9205C281.972 21.25 281.693 22.4375 281.136 23.483C280.58 24.517 279.813 25.375 278.835 26.0568C277.858 26.7386 276.727 27.2159 275.443 27.4886V27.8295C276.852 27.8977 278.153 28.2784 279.347 28.9716C280.551 29.6648 281.517 30.6307 282.244 31.8693C282.972 33.0966 283.335 34.5511 283.335 36.233C283.335 38.108 282.858 39.7841 281.903 41.2614C280.949 42.7273 279.568 43.8864 277.761 44.7386C275.955 45.5795 273.761 46 271.182 46H255.517ZM263.955 39.1989H269.17C271 39.1989 272.347 38.8523 273.21 38.1591C274.085 37.4659 274.523 36.5 274.523 35.2614C274.523 34.3636 274.313 33.5909 273.892 32.9432C273.472 32.2841 272.875 31.7784 272.102 31.4261C271.33 31.0625 270.403 30.8807 269.324 30.8807H263.955V39.1989ZM263.955 25.4432H268.625C269.545 25.4432 270.364 25.2898 271.08 24.983C271.795 24.6761 272.352 24.233 272.75 23.6534C273.159 23.0739 273.364 22.375 273.364 21.5568C273.364 20.3864 272.949 19.4659 272.119 18.7955C271.29 18.125 270.17 17.7898 268.761 17.7898H263.955V25.4432Z" fill="#0967A4"/>
</svg>
