<svg width="600" height="400" viewBox="0 0 600 400" fill="none" xmlns="http://www.w3.org/2000/svg">
<path d="M0 0H600V400H0V0Z" fill="#F0F0F0"/>
<g clip-path="url(#clip0_2029_6)">
<path d="M291.988 191.428C291.988 192.857 291.521 194.071 290.587 195.07C289.653 196.068 288.521 196.569 287.191 196.571C285.861 196.574 284.729 196.073 283.796 195.07C282.862 194.066 282.395 192.852 282.395 191.428C282.395 190.004 282.862 188.791 283.796 187.787C284.729 186.784 285.861 186.283 287.191 186.286C288.521 186.288 289.653 186.788 290.587 187.787C291.521 188.786 291.988 190 291.988 191.428ZM317.568 201.714V213.714H282.395V208.571L290.389 200L294.386 204.286L307.176 190.571L317.568 201.714ZM319.966 182.857H279.997C279.779 182.857 279.592 182.942 279.434 183.111C279.276 183.28 279.198 183.481 279.198 183.714V216.286C279.198 216.519 279.276 216.72 279.434 216.889C279.592 217.058 279.779 217.143 279.997 217.143H319.966C320.183 217.143 320.371 217.058 320.528 216.889C320.686 216.72 320.765 216.519 320.765 216.286V183.714C320.765 183.481 320.686 183.28 320.528 183.111C320.371 182.942 320.183 182.857 319.966 182.857ZM323.963 183.714V216.286C323.963 217.465 323.571 218.474 322.789 219.313C322.007 220.152 321.066 220.571 319.966 220.571H279.997C278.897 220.571 277.956 220.152 277.173 219.313C276.391 218.474 276 217.465 276 216.286V183.714C276 182.535 276.391 181.526 277.173 180.687C277.956 179.848 278.897 179.428 279.997 179.428H319.966C321.066 179.428 322.007 179.848 322.789 180.687C323.571 181.526 323.963 182.535 323.963 183.714Z" fill="#BFBFBF"/>
</g>
<defs>
<clipPath id="clip0_2029_6">
<rect width="48" height="48" fill="white" transform="translate(276 176)"/>
</clipPath>
</defs>
</svg>
